# xmcd
#
# Track frame offsets:
#	150
#	13314
#	28245
#	42747
#	54880
#	68199
#	81646
#	95343
#	107383
#	120741
#
# Disc length: 1791 seconds
#
# Revision: 0
# Processed by: cddbd v1.5.2PL0 Copyright (c) Steve Scherf et al.
# Submitted via: dBpowerAMP V4.0
#
DISCID=8706fd0a
DTITLE=Billie Holiday - Lover Man
DYEAR=1900
DGENRE=Blues
TTITLE0=Billie Holiday - God Bless The Child
TTITLE1=Billie Holiday - Lover Man (Oh, Where Can You Be?)
TTITLE2=Billie Holiday - Stange Fruit
TTITLE3=Billie Holiday - Billie's Blues
TTITLE4=Billie Holiday - What A Little Moonlight Can Do
TTITLE5=Billie Holiday - Miss Brown To You
TTITLE6=Billie Holiday - Easy Living
TTITLE7=Billie Holiday - He's Funny That Way
TTITLE8=Billie Holiday - Body And Soul
TTITLE9=Billie Holiday - My Man
EXTD=
EXTT0=
EXTT1=
EXTT2=
EXTT3=
EXTT4=
EXTT5=
EXTT6=
EXTT7=
EXTT8=
EXTT9=
PLAYORDER=
